# Blender v2.80 (sub 75) OBJ File: ''
# www.blender.org
mtllib model_1.mtl
o model
v 0.012973 0.223840 0.004019
v 0.013710 0.207555 -0.064466
v -0.010287 0.207736 -0.064768
v -0.011025 0.224021 0.003717
v 0.013710 0.207555 -0.064466
v 0.013989 0.159208 -0.115638
v -0.010008 0.159389 -0.115939
v -0.010287 0.207736 -0.064768
v 0.013989 0.159208 -0.115638
v 0.013735 0.091754 -0.135784
v -0.010262 0.091935 -0.136085
v -0.010008 0.159389 -0.115939
v 0.013735 0.091754 -0.135784
v 0.013015 0.023267 -0.119506
v -0.010982 0.023447 -0.119807
v -0.010262 0.091935 -0.136085
v 0.013015 0.023267 -0.119506
v 0.014126 -0.041678 -0.087538
v -0.009872 -0.041498 -0.087839
v -0.010982 0.023447 -0.119807
v 0.014126 -0.041678 -0.087538
v -0.002286 -0.223990 -0.004876
v -0.009872 -0.041498 -0.087839
v 0.009995 -0.044427 0.080413
v -0.014002 -0.044246 0.080111
v -0.002286 -0.223990 -0.004876
v 0.009995 -0.044427 0.080413
v 0.010008 0.016589 0.115939
v -0.013990 0.016769 0.115638
v -0.014002 -0.044246 0.080111
v 0.010008 0.016589 0.115939
v 0.010262 0.084043 0.136085
v -0.013735 0.084223 0.135784
v -0.013990 0.016769 0.115638
v 0.010262 0.084043 0.136085
v 0.010982 0.152530 0.119807
v -0.013016 0.152711 0.119506
v -0.013735 0.084223 0.135784
v 0.010982 0.152530 0.119807
v 0.011974 0.203700 0.071468
v -0.012023 0.203880 0.071166
v -0.013016 0.152711 0.119506
v 0.011974 0.203700 0.071468
v 0.012973 0.223840 0.004019
v -0.011025 0.224021 0.003717
v -0.012023 0.203880 0.071166
v -0.014021 0.192040 0.063840
v -0.014911 0.146109 0.107231
v -0.013016 0.152711 0.119506
v -0.012023 0.203880 0.071166
v 0.020573 0.168110 0.002535
v 0.021009 0.158494 -0.037905
v 0.013710 0.207555 -0.064466
v 0.012973 0.223840 0.004019
v -0.014911 0.146109 0.107231
v -0.014911 0.146109 0.107231
v -0.015557 0.084633 0.121842
v -0.013735 0.084223 0.135784
v -0.013016 0.152711 0.119506
v -0.015557 0.084633 0.121842
v -0.015557 0.084633 0.121842
v -0.015785 0.024085 0.103759
v -0.013990 0.016769 0.115638
v -0.013735 0.084223 0.135784
v -0.015785 0.024085 0.103759
v -0.017581 0.031400 0.091879
v -0.015744 0.016948 0.096204
v -0.013990 0.016769 0.115638
v -0.016004 -0.026609 0.068052
v -0.021009 0.017483 0.037905
v -0.020573 0.007867 -0.002535
v -0.014002 -0.044246 0.080111
v -0.020573 0.007867 -0.002535
v -0.019983 0.019760 -0.042363
v -0.009872 -0.041498 -0.087839
v -0.019983 0.019760 -0.042363
v -0.019398 0.049975 -0.070907
v -0.015190 0.036711 -0.095357
v -0.013086 0.030079 -0.107582
v -0.010982 0.023447 -0.119807
v -0.013086 0.030079 -0.107582
v -0.012440 0.091555 -0.122193
v -0.010262 0.091935 -0.136085
v -0.010982 0.023447 -0.119807
v -0.012440 0.091555 -0.122193
v -0.014617 0.091175 -0.108302
v -0.014415 0.144818 -0.092281
v -0.012212 0.152103 -0.104110
v -0.010008 0.159389 -0.115939
v -0.010262 0.091935 -0.136085
v -0.012212 0.152103 -0.104110
v -0.012462 0.195501 -0.058178
v -0.010287 0.207736 -0.064768
v -0.010008 0.159389 -0.115939
v -0.012462 0.195501 -0.058178
v -0.012462 0.195501 -0.058178
v -0.013124 0.210118 0.003296
v -0.011025 0.224021 0.003717
v -0.010287 0.207736 -0.064768
v -0.013124 0.210118 0.003296
v -0.013124 0.210118 0.003296
v -0.014021 0.192040 0.063840
v -0.012023 0.203880 0.071166
v -0.011025 0.224021 0.003717
v -0.024007 0.130506 0.025772
v -0.024007 0.130506 0.025772
v -0.024369 0.111799 0.043445
v -0.020598 0.126304 0.070405
v -0.020012 0.156519 0.041861
v 0.021009 0.158494 -0.037905
v 0.021173 0.129946 -0.068121
v 0.013989 0.159208 -0.115638
v 0.013710 0.207555 -0.064466
v 0.021173 0.129946 -0.068121
v 0.021023 0.090115 -0.080017
v 0.013735 0.091754 -0.135784
v 0.013989 0.159208 -0.115638
v 0.021023 0.090115 -0.080017
v 0.020598 0.049674 -0.070405
v 0.013015 0.023267 -0.119506
v 0.013735 0.091754 -0.135784
v 0.020598 0.049674 -0.070405
v 0.020012 0.019459 -0.041861
v 0.013015 0.023267 -0.119506
v 0.020012 0.019459 -0.041861
v 0.019423 0.007566 -0.002033
v 0.014126 -0.041678 -0.087538
v 0.019423 0.007566 -0.002033
v 0.018987 0.017182 0.038407
v 0.009995 -0.044427 0.080413
v 0.001714 -0.224021 -0.004826
v 0.018987 0.017182 0.038407
v 0.018822 0.045731 0.068623
v 0.010008 0.016589 0.115939
v 0.009995 -0.044427 0.080413
v 0.018822 0.045731 0.068623
v 0.018973 0.085562 0.080519
v 0.010262 0.084043 0.136085
v 0.010008 0.016589 0.115939
v 0.018973 0.085562 0.080519
v 0.019397 0.126003 0.070907
v 0.010982 0.152530 0.119807
v 0.010262 0.084043 0.136085
v 0.019397 0.126003 0.070907
v 0.019983 0.156218 0.042363
v 0.011974 0.203700 0.071468
v 0.010982 0.152530 0.119807
v 0.019983 0.156218 0.042363
v 0.020573 0.168110 0.002535
v 0.012973 0.223840 0.004019
v 0.011974 0.203700 0.071468
v 0.024353 0.137509 0.001716
v 0.024623 0.131555 -0.023323
v 0.021009 0.158494 -0.037905
v 0.020573 0.168110 0.002535
v 0.019423 0.007566 -0.002033
v 0.001714 -0.224021 -0.004826
v 0.014126 -0.041678 -0.087538
v -0.009872 -0.041498 -0.087839
v -0.002286 -0.223990 -0.004876
v -0.020573 0.007867 -0.002535
v -0.020573 0.007867 -0.002535
v -0.002286 -0.223990 -0.004876
v -0.014002 -0.044246 0.080111
v 0.020012 0.019459 -0.041861
v 0.014126 -0.041678 -0.087538
v 0.013015 0.023267 -0.119506
v -0.010982 0.023447 -0.119807
v -0.009872 -0.041498 -0.087839
v -0.019983 0.019760 -0.042363
v -0.024369 0.111799 0.043445
v -0.024632 0.086760 0.049396
v -0.021023 0.085863 0.080017
v -0.020598 0.126304 0.070405
v -0.024632 0.086760 0.049396
v -0.024632 0.086760 0.049396
v -0.024725 0.062098 0.042031
v -0.021173 0.046032 0.068121
v -0.021023 0.085863 0.080017
v -0.024725 0.062098 0.042031
v -0.024725 0.062098 0.042031
v -0.024623 0.044423 0.023323
v -0.021009 0.017483 0.037905
v -0.021173 0.046032 0.068121
v -0.024623 0.044423 0.023323
v -0.024623 0.044423 0.023323
v -0.024354 0.038469 -0.001716
v -0.020573 0.007867 -0.002535
v -0.021009 0.017483 0.037905
v -0.024354 0.038469 -0.001716
v -0.024354 0.038469 -0.001716
v -0.023988 0.045832 -0.026375
v -0.019983 0.019760 -0.042363
v -0.020573 0.007867 -0.002535
v -0.023988 0.045832 -0.026375
v -0.023626 0.064540 -0.044048
v -0.019398 0.049975 -0.070907
v -0.019983 0.019760 -0.042363
v -0.023626 0.064540 -0.044048
v -0.023626 0.064540 -0.044048
v -0.023363 0.089579 -0.049999
v -0.018973 0.090416 -0.080519
v -0.019398 0.049975 -0.070907
v -0.023363 0.089579 -0.049999
v -0.023363 0.089579 -0.049999
v -0.023270 0.114240 -0.042634
v -0.018822 0.130247 -0.068623
v -0.018973 0.090416 -0.080519
v -0.023270 0.114240 -0.042634
v -0.023372 0.131916 -0.023925
v -0.018987 0.158795 -0.038407
v -0.018822 0.130247 -0.068623
v -0.023372 0.131916 -0.023925
v -0.023372 0.131916 -0.023925
v -0.023641 0.137870 0.001113
v -0.019423 0.168411 0.002033
v -0.018987 0.158795 -0.038407
v -0.023641 0.137870 0.001113
v -0.024007 0.130506 0.025772
v -0.020012 0.156519 0.041861
v -0.019423 0.168411 0.002033
v 0.024623 0.131555 -0.023323
v 0.024725 0.113879 -0.042031
v 0.021173 0.129946 -0.068121
v 0.021009 0.158494 -0.037905
v 0.024725 0.113879 -0.042031
v 0.024632 0.089218 -0.049396
v 0.021023 0.090115 -0.080017
v 0.021173 0.129946 -0.068121
v 0.024632 0.089218 -0.049396
v 0.024369 0.064179 -0.043445
v 0.020598 0.049674 -0.070405
v 0.021023 0.090115 -0.080017
v 0.024369 0.064179 -0.043445
v 0.024006 0.045471 -0.025772
v 0.020012 0.019459 -0.041861
v 0.020598 0.049674 -0.070405
v 0.024006 0.045471 -0.025772
v 0.023641 0.038108 -0.001113
v 0.019423 0.007566 -0.002033
v 0.020012 0.019459 -0.041861
v 0.023641 0.038108 -0.001113
v 0.023372 0.044062 0.023926
v 0.018987 0.017182 0.038407
v 0.019423 0.007566 -0.002033
v 0.023372 0.044062 0.023926
v 0.023270 0.061737 0.042634
v 0.018822 0.045731 0.068623
v 0.018987 0.017182 0.038407
v 0.023270 0.061737 0.042634
v 0.023363 0.086399 0.049999
v 0.018973 0.085562 0.080519
v 0.018822 0.045731 0.068623
v 0.023363 0.086399 0.049999
v 0.023626 0.111438 0.044048
v 0.019397 0.126003 0.070907
v 0.018973 0.085562 0.080519
v 0.023626 0.111438 0.044048
v 0.023988 0.130145 0.026375
v 0.019983 0.156218 0.042363
v 0.019397 0.126003 0.070907
v 0.023988 0.130145 0.026375
v 0.024353 0.137509 0.001716
v 0.020573 0.168110 0.002535
v 0.019983 0.156218 0.042363
v -0.015744 0.016948 0.096204
v -0.016622 0.017037 0.086488
v -0.016004 -0.026609 0.068052
v -0.014002 -0.044246 0.080111
v -0.013990 0.016769 0.115638
v 0.014126 -0.041678 -0.087538
v 0.001714 -0.224021 -0.004826
v -0.002286 -0.223990 -0.004876
v -0.002286 -0.223990 -0.004876
v 0.001714 -0.224021 -0.004826
v 0.009995 -0.044427 0.080413
v -0.014415 0.144818 -0.092281
v -0.018822 0.130247 -0.068623
v -0.018987 0.158795 -0.038407
v -0.014637 0.183265 -0.051587
v -0.014637 0.183265 -0.051587
v -0.018987 0.158795 -0.038407
v -0.019423 0.168411 0.002033
v -0.015224 0.196216 0.002875
v -0.015224 0.196216 0.002875
v -0.019423 0.168411 0.002033
v -0.020012 0.156519 0.041861
v -0.016018 0.180199 0.056514
v -0.016018 0.180199 0.056514
v -0.020012 0.156519 0.041861
v -0.020598 0.126304 0.070405
v -0.016807 0.139507 0.094955
v -0.016807 0.139507 0.094955
v -0.020598 0.126304 0.070405
v -0.021023 0.085863 0.080017
v -0.017379 0.085043 0.107900
v -0.017379 0.085043 0.107900
v -0.021023 0.085863 0.080017
v -0.021173 0.046032 0.068121
v -0.017581 0.031400 0.091879
v -0.017581 0.031400 0.091879
v -0.021173 0.046032 0.068121
v -0.021009 0.017483 0.037905
v -0.017499 0.017126 0.076771
v -0.017581 0.031400 0.091879
v -0.016622 0.017037 0.086488
v -0.015744 0.016948 0.096204
v -0.017581 0.031400 0.091879
v -0.017499 0.017126 0.076771
v -0.016622 0.017037 0.086488
v -0.016622 0.017037 0.086488
v -0.017499 0.017126 0.076771
v -0.021009 0.017483 0.037905
v -0.016004 -0.026609 0.068052
v -0.012212 0.152103 -0.104110
v -0.014415 0.144818 -0.092281
v -0.014637 0.183265 -0.051587
v -0.012462 0.195501 -0.058178
v -0.012462 0.195501 -0.058178
v -0.014637 0.183265 -0.051587
v -0.014637 0.183265 -0.051587
v -0.015224 0.196216 0.002875
v -0.013124 0.210118 0.003296
v -0.013124 0.210118 0.003296
v -0.015224 0.196216 0.002875
v -0.016018 0.180199 0.056514
v -0.014021 0.192040 0.063840
v -0.014021 0.192040 0.063840
v -0.016018 0.180199 0.056514
v -0.016018 0.180199 0.056514
v -0.016807 0.139507 0.094955
v -0.014911 0.146109 0.107231
v -0.014911 0.146109 0.107231
v -0.016807 0.139507 0.094955
v -0.016807 0.139507 0.094955
v -0.017379 0.085043 0.107900
v -0.015557 0.084633 0.121842
v -0.015557 0.084633 0.121842
v -0.017379 0.085043 0.107900
v -0.017581 0.031400 0.091879
v -0.015785 0.024085 0.103759
v -0.015190 0.036711 -0.095357
v -0.019398 0.049975 -0.070907
v -0.018973 0.090416 -0.080519
v -0.014617 0.091175 -0.108302
v -0.013086 0.030079 -0.107582
v -0.015190 0.036711 -0.095357
v -0.014617 0.091175 -0.108302
v -0.012440 0.091555 -0.122193
v -0.014617 0.091175 -0.108302
v -0.018973 0.090416 -0.080519
v -0.018822 0.130247 -0.068623
v -0.014415 0.144818 -0.092281
v -0.027860 0.107328 0.000193
v -0.027756 0.105036 -0.009444
v -0.027717 0.098233 -0.016644
v -0.027753 0.088742 -0.019479
v -0.027854 0.079105 -0.017189
v -0.027993 0.071905 -0.010387
v -0.028134 0.069071 -0.000896
v -0.028238 0.071362 0.008741
v -0.028277 0.078165 0.015941
v -0.028241 0.087657 0.018776
v -0.028140 0.097294 0.016485
v -0.028000 0.104494 0.009684
v 0.027994 0.104073 0.010387
v 0.027854 0.096873 0.017189
v 0.027753 0.087236 0.019479
v 0.027717 0.077744 0.016645
v 0.027756 0.070941 0.009444
v 0.027860 0.068650 -0.000193
v 0.028000 0.071484 -0.009683
v 0.028140 0.078684 -0.016485
v 0.028241 0.088321 -0.018776
v 0.028277 0.097812 -0.015941
v 0.028238 0.104615 -0.008741
v 0.028134 0.106907 0.000896
v -0.024369 0.111799 0.043445
v -0.028140 0.097294 0.016485
v -0.028241 0.087657 0.018776
v -0.024632 0.086760 0.049396
v -0.024632 0.086760 0.049396
v -0.028241 0.087657 0.018776
v -0.028277 0.078165 0.015941
v -0.024725 0.062098 0.042031
v -0.024725 0.062098 0.042031
v -0.028277 0.078165 0.015941
v -0.028238 0.071362 0.008741
v -0.024623 0.044423 0.023323
v -0.024623 0.044423 0.023323
v -0.028238 0.071362 0.008741
v -0.028134 0.069071 -0.000896
v -0.024354 0.038469 -0.001716
v -0.024354 0.038469 -0.001716
v -0.028134 0.069071 -0.000896
v -0.027993 0.071905 -0.010387
v -0.023988 0.045832 -0.026375
v -0.023988 0.045832 -0.026375
v -0.027993 0.071905 -0.010387
v -0.027854 0.079105 -0.017189
v -0.023626 0.064540 -0.044048
v -0.023626 0.064540 -0.044048
v -0.027854 0.079105 -0.017189
v -0.027753 0.088742 -0.019479
v -0.023363 0.089579 -0.049999
v -0.023363 0.089579 -0.049999
v -0.027753 0.088742 -0.019479
v -0.027717 0.098233 -0.016644
v -0.023270 0.114240 -0.042634
v -0.023270 0.114240 -0.042634
v -0.027717 0.098233 -0.016644
v -0.027756 0.105036 -0.009444
v -0.023372 0.131916 -0.023925
v -0.023372 0.131916 -0.023925
v -0.027756 0.105036 -0.009444
v -0.027860 0.107328 0.000193
v -0.023641 0.137870 0.001113
v -0.023641 0.137870 0.001113
v -0.027860 0.107328 0.000193
v -0.028000 0.104494 0.009684
v -0.024007 0.130506 0.025772
v -0.024007 0.130506 0.025772
v -0.028000 0.104494 0.009684
v -0.028140 0.097294 0.016485
v -0.024369 0.111799 0.043445
v 0.024006 0.045471 -0.025772
v 0.028000 0.071484 -0.009683
v 0.027860 0.068650 -0.000193
v 0.023641 0.038108 -0.001113
v 0.024369 0.064179 -0.043445
v 0.028140 0.078684 -0.016485
v 0.028000 0.071484 -0.009683
v 0.024006 0.045471 -0.025772
v 0.024632 0.089218 -0.049396
v 0.028241 0.088321 -0.018776
v 0.028140 0.078684 -0.016485
v 0.024369 0.064179 -0.043445
v 0.024725 0.113879 -0.042031
v 0.028277 0.097812 -0.015941
v 0.028241 0.088321 -0.018776
v 0.024632 0.089218 -0.049396
v 0.024623 0.131555 -0.023323
v 0.028238 0.104615 -0.008741
v 0.028277 0.097812 -0.015941
v 0.024725 0.113879 -0.042031
v 0.024353 0.137509 0.001716
v 0.028134 0.106907 0.000896
v 0.028238 0.104615 -0.008741
v 0.024623 0.131555 -0.023323
v 0.023988 0.130145 0.026375
v 0.027994 0.104073 0.010387
v 0.028134 0.106907 0.000896
v 0.024353 0.137509 0.001716
v 0.023626 0.111438 0.044048
v 0.027854 0.096873 0.017189
v 0.027994 0.104073 0.010387
v 0.023988 0.130145 0.026375
v 0.023363 0.086399 0.049999
v 0.027753 0.087236 0.019479
v 0.027854 0.096873 0.017189
v 0.023626 0.111438 0.044048
v 0.023270 0.061737 0.042634
v 0.027717 0.077744 0.016645
v 0.027753 0.087236 0.019479
v 0.023363 0.086399 0.049999
v 0.023372 0.044062 0.023926
v 0.027756 0.070941 0.009444
v 0.027717 0.077744 0.016645
v 0.023270 0.061737 0.042634
v 0.023641 0.038108 -0.001113
v 0.027860 0.068650 -0.000193
v 0.027756 0.070941 0.009444
v 0.023372 0.044062 0.023926
vn 0.0102 0.9728 -0.2312
vn 0.0141 0.7268 -0.6867
vn 0.0142 0.2861 -0.9581
vn 0.0105 -0.2313 -0.9728
vn 0.0079 -0.4415 -0.8972
vn 0.0083 -0.4136 -0.9104
vn -0.0146 -0.4282 0.9036
vn -0.0146 -0.5031 0.8641
vn -0.0142 -0.2861 0.9581
vn -0.0105 0.2313 0.9728
vn -0.0040 0.6868 0.7269
vn 0.0036 0.9582 0.2862
vn -0.9896 0.1085 0.0945
vn 0.9905 0.1357 -0.0216
vn -0.9906 0.0415 0.1307
vn -0.9911 -0.0346 0.1285
vn -0.9911 -0.0995 0.0886
vn -0.9945 -0.1034 0.0139
vn -0.9908 -0.1250 -0.0520
vn -0.9884 -0.0936 -0.1193
vn -0.9875 -0.0266 -0.1555
vn -0.9869 0.0495 -0.1534
vn -0.9869 0.1144 -0.1134
vn -0.9875 0.1505 -0.0464
vn -0.9885 0.1484 0.0297
vn -0.9914 0.0996 0.0851
vn 0.9911 0.0995 -0.0886
vn 0.9911 0.0346 -0.1285
vn 0.9906 -0.0415 -0.1307
vn 0.9896 -0.1085 -0.0945
vn 0.9961 -0.0874 -0.0114
vn 0.9947 -0.0823 0.0618
vn 0.9901 -0.0820 0.1140
vn 0.9869 -0.0495 0.1534
vn 0.9875 0.0266 0.1555
vn 0.9884 0.0936 0.1193
vn 0.9895 0.1335 0.0545
vn 0.9922 0.1231 -0.0186
vn 0.9969 -0.0760 -0.0180
vn -0.9938 -0.0776 -0.0798
vn -0.9964 -0.0789 0.0295
vn 0.9955 -0.0278 -0.0911
vn -0.9901 -0.0753 -0.1187
vn -0.9923 0.0385 0.1181
vn -0.9928 -0.0309 0.1161
vn -0.9927 -0.0901 0.0797
vn -0.9922 -0.1231 0.0186
vn -0.9913 -0.1211 -0.0508
vn -0.9903 -0.0847 -0.1100
vn -0.9894 -0.0236 -0.1430
vn -0.9889 0.0458 -0.1410
vn -0.9890 0.1050 -0.1046
vn -0.9895 0.1380 -0.0435
vn -0.9904 0.1360 0.0260
vn 0.9927 0.0901 -0.0797
vn 0.9928 0.0309 -0.1161
vn 0.9923 -0.0385 -0.1181
vn 0.9914 -0.0996 -0.0851
vn 0.9904 -0.1360 -0.0260
vn 0.9895 -0.1380 0.0435
vn 0.9890 -0.1050 0.1046
vn 0.9889 -0.0458 0.1410
vn 0.9894 0.0236 0.1430
vn 0.9903 0.0847 0.1100
vn 0.9913 0.1211 0.0508
vn -0.9947 -0.0518 0.0893
vn -0.9999 0.0075 -0.0126
vn 0.9999 -0.0075 0.0126
vn -0.9904 0.1360 0.0259
usemtl mat8
s off
f 1//1 2//1 3//1 4//1
f 5//2 6//2 7//2 8//2
f 9//3 10//3 11//3 12//3
f 13//4 14//4 15//4 16//4
f 17//5 18//5 19//5 20//5
f 21//6 22//6 23//6
f 24//7 25//7 26//7
f 27//8 28//8 29//8 30//8
f 31//9 32//9 33//9 34//9
f 35//10 36//10 37//10 38//10
f 39//11 40//11 41//11 42//11
f 43//12 44//12 45//12 46//12
f 47//13 48//13 49//13 50//13
f 51//14 52//14 53//14 54//14
f 55//15 56//15 57//15 58//15 59//15
f 60//16 61//16 62//16 63//16 64//16
f 65//17 66//17 67//17 68//17
f 69//18 70//18 71//18 72//18
f 73//19 74//19 75//19
f 76//20 77//20 78//20 79//20 80//20
f 81//21 82//21 83//21 84//21
f 85//22 86//22 87//22 88//22 89//22 90//22
f 91//23 92//23 93//23 94//23
f 95//24 96//24 97//24 98//24 99//24
f 100//25 101//25 102//25 103//25 104//25
f 105//26 106//26 107//26 108//26 109//26
f 110//27 111//27 112//27 113//27
f 114//28 115//28 116//28 117//28
f 118//29 119//29 120//29 121//29
f 122//30 123//30 124//30
f 125//31 126//31 127//31
f 128//32 129//32 130//32 131//32
f 132//33 133//33 134//33 135//33
f 136//34 137//34 138//34 139//34
f 140//35 141//35 142//35 143//35
f 144//36 145//36 146//36 147//36
f 148//37 149//37 150//37 151//37
f 152//38 153//38 154//38 155//38
f 156//39 157//39 158//39
f 159//40 160//40 161//40
f 162//41 163//41 164//41
f 165//42 166//42 167//42
f 168//43 169//43 170//43
f 171//44 172//44 173//44 174//44
f 175//45 176//45 177//45 178//45 179//45
f 180//46 181//46 182//46 183//46 184//46
f 185//47 186//47 187//47 188//47 189//47
f 190//48 191//48 192//48 193//48 194//48
f 195//49 196//49 197//49 198//49
f 199//50 200//50 201//50 202//50 203//50
f 204//51 205//51 206//51 207//51 208//51
f 209//52 210//52 211//52 212//52
f 213//53 214//53 215//53 216//53 217//53
f 218//54 219//54 220//54 221//54
f 222//55 223//55 224//55 225//55
f 226//56 227//56 228//56 229//56
f 230//57 231//57 232//57 233//57
f 234//58 235//58 236//58 237//58
f 238//59 239//59 240//59 241//59
f 242//60 243//60 244//60 245//60
f 246//61 247//61 248//61 249//61
f 250//62 251//62 252//62 253//62
f 254//63 255//63 256//63 257//63
f 258//64 259//64 260//64 261//64
f 262//65 263//65 264//65 265//65
f 266//66 267//66 268//66 269//66 270//66
f 271//6 272//6 273//6
f 274//7 275//7 276//7
f 277//23 278//23 279//23 280//23
f 281//24 282//24 283//24 284//24
f 285//25 286//25 287//25 288//25
f 289//13 290//13 291//13 292//13
f 293//15 294//15 295//15 296//15
f 297//16 298//16 299//16 300//16
f 301//17 302//17 303//17 304//17
f 305//17 306//17 307//17
f 308//17 309//17 310//17
f 311//66 312//66 313//66 314//66
f 315//23 316//23 317//23 318//23
f 319//24 320//24 321//24 322//24 323//24
f 324//25 325//25 326//25 327//25
f 328//13 329//13 330//13 331//13 332//13
f 333//15 334//15 335//15 336//15 337//15
f 338//16 339//16 340//16 341//16
f 342//21 343//21 344//21 345//21
f 346//21 347//21 348//21 349//21
f 350//22 351//22 352//22 353//22
usemtl mat23
f 354//67 355//67 356//67 357//67 358//67 359//67 360//67 361//67 362//67 363//67 364//67 365//67
f 366//68 367//68 368//68 369//68 370//68 371//68 372//68 373//68 374//68 375//68 376//68 377//68
f 378//44 379//44 380//44 381//44
f 382//45 383//45 384//45 385//45
f 386//46 387//46 388//46 389//46
f 390//47 391//47 392//47 393//47
f 394//48 395//48 396//48 397//48
f 398//49 399//49 400//49 401//49
f 402//50 403//50 404//50 405//50
f 406//51 407//51 408//51 409//51
f 410//52 411//52 412//52 413//52
f 414//53 415//53 416//53 417//53
f 418//69 419//69 420//69 421//69
f 422//26 423//26 424//26 425//26
f 426//59 427//59 428//59 429//59
f 430//58 431//58 432//58 433//58
f 434//57 435//57 436//57 437//57
f 438//56 439//56 440//56 441//56
f 442//55 443//55 444//55 445//55
f 446//38 447//38 448//38 449//38
f 450//65 451//65 452//65 453//65
f 454//64 455//64 456//64 457//64
f 458//63 459//63 460//63 461//63
f 462//62 463//62 464//62 465//62
f 466//61 467//61 468//61 469//61
f 470//60 471//60 472//60 473//60
