# Blender v2.80 (sub 75) OBJ File: ''
# www.blender.org
mtllib model_3.mtl
o model
v 0.001608 0.089536 -0.005189
v -0.025787 0.083022 -0.005484
v -0.025907 0.083094 0.004115
v 0.001487 0.089608 0.004410
v -0.025787 0.083022 -0.005484
v -0.046255 0.063683 -0.005596
v -0.046376 0.063755 0.004003
v -0.025907 0.083094 0.004115
v -0.046255 0.063683 -0.005596
v -0.054313 0.036702 -0.005494
v -0.054434 0.036774 0.004105
v -0.046376 0.063755 0.004003
v -0.054313 0.036702 -0.005494
v -0.047802 0.009307 -0.005206
v -0.047923 0.009379 0.004393
v -0.054434 0.036774 0.004105
v -0.047802 0.009307 -0.005206
v -0.035015 -0.016671 -0.005650
v -0.035136 -0.016599 0.003949
v -0.047923 0.009379 0.004393
v -0.035015 -0.016671 -0.005650
v -0.001950 -0.089596 0.000914
v -0.035136 -0.016599 0.003949
v 0.032165 -0.017771 -0.003998
v 0.032044 -0.017699 0.005601
v -0.001950 -0.089596 0.000914
v 0.032165 -0.017771 -0.003998
v 0.046376 0.006636 -0.004003
v 0.046255 0.006708 0.005596
v 0.032044 -0.017699 0.005601
v 0.046376 0.006636 -0.004003
v 0.054434 0.033617 -0.004105
v 0.054313 0.033689 0.005494
v 0.046255 0.006708 0.005596
v 0.054434 0.033617 -0.004105
v 0.047923 0.061012 -0.004393
v 0.047802 0.061084 0.005206
v 0.054313 0.033689 0.005494
v 0.047923 0.061012 -0.004393
v 0.028587 0.081480 -0.004790
v 0.028467 0.081552 0.004809
v 0.047802 0.061084 0.005206
v 0.028587 0.081480 -0.004790
v 0.001608 0.089536 -0.005189
v 0.001487 0.089608 0.004410
v 0.028467 0.081552 0.004809
v 0.025536 0.076816 0.005608
v 0.042892 0.058444 0.005964
v 0.047802 0.061084 0.005206
v 0.028467 0.081552 0.004809
v 0.001014 0.067244 -0.008229
v -0.015162 0.063398 -0.008403
v -0.025787 0.083022 -0.005484
v 0.001608 0.089536 -0.005189
v 0.042892 0.058444 0.005964
v 0.042892 0.058444 0.005964
v 0.048737 0.033853 0.006223
v 0.054313 0.033689 0.005494
v 0.047802 0.061084 0.005206
v 0.048737 0.033853 0.006223
v 0.048737 0.033853 0.006223
v 0.041503 0.009634 0.006314
v 0.046255 0.006708 0.005596
v 0.054313 0.033689 0.005494
v 0.041503 0.009634 0.006314
v 0.036752 0.012560 0.007033
v 0.038482 0.006779 0.006298
v 0.046255 0.006708 0.005596
v 0.027221 -0.010644 0.006402
v 0.015162 0.006993 0.008403
v -0.001014 0.003147 0.008229
v 0.032044 -0.017699 0.005601
v -0.001014 0.003147 0.008229
v -0.016945 0.007904 0.007993
v -0.035136 -0.016599 0.003949
v -0.016945 0.007904 0.007993
v -0.028363 0.019990 0.007759
v -0.038143 0.014684 0.006076
v -0.043033 0.012032 0.005234
v -0.047923 0.009379 0.004393
v -0.043033 0.012032 0.005234
v -0.048877 0.036622 0.004976
v -0.054434 0.036774 0.004105
v -0.047923 0.009379 0.004393
v -0.048877 0.036622 0.004976
v -0.043321 0.036470 0.005847
v -0.036912 0.057927 0.005766
v -0.041644 0.060841 0.004885
v -0.046376 0.063755 0.004003
v -0.054434 0.036774 0.004105
v -0.041644 0.060841 0.004885
v -0.023271 0.078200 0.004985
v -0.025907 0.083094 0.004115
v -0.046376 0.063755 0.004003
v -0.023271 0.078200 0.004985
v -0.023271 0.078200 0.004985
v 0.001319 0.084047 0.005250
v 0.001487 0.089608 0.004410
v -0.025907 0.083094 0.004115
v 0.001319 0.084047 0.005250
v 0.001319 0.084047 0.005250
v 0.025536 0.076816 0.005608
v 0.028467 0.081552 0.004809
v 0.001487 0.089608 0.004410
v 0.010309 0.052203 0.009603
v 0.010309 0.052203 0.009603
v 0.017378 0.044719 0.009748
v 0.028162 0.050521 0.008239
v 0.016744 0.062607 0.008005
v -0.015162 0.063398 -0.008403
v -0.027248 0.051978 -0.008469
v -0.046255 0.063683 -0.005596
v -0.025787 0.083022 -0.005484
v -0.027248 0.051978 -0.008469
v -0.032007 0.036046 -0.008409
v -0.054313 0.036702 -0.005494
v -0.046255 0.063683 -0.005596
v -0.032007 0.036046 -0.008409
v -0.028162 0.019870 -0.008239
v -0.047802 0.009307 -0.005206
v -0.054313 0.036702 -0.005494
v -0.028162 0.019870 -0.008239
v -0.016744 0.007784 -0.008005
v -0.047802 0.009307 -0.005206
v -0.016744 0.007784 -0.008005
v -0.000813 0.003026 -0.007769
v -0.035015 -0.016671 -0.005650
v -0.000813 0.003026 -0.007769
v 0.015363 0.006873 -0.007595
v 0.032165 -0.017771 -0.003998
v -0.001930 -0.089608 -0.000686
v 0.015363 0.006873 -0.007595
v 0.027449 0.018292 -0.007529
v 0.046376 0.006636 -0.004003
v 0.032165 -0.017771 -0.003998
v 0.027449 0.018292 -0.007529
v 0.032208 0.034225 -0.007589
v 0.054434 0.033617 -0.004105
v 0.046376 0.006636 -0.004003
v 0.032208 0.034225 -0.007589
v 0.028363 0.050401 -0.007759
v 0.047923 0.061012 -0.004393
v 0.054434 0.033617 -0.004105
v 0.028363 0.050401 -0.007759
v 0.016945 0.062487 -0.007993
v 0.028587 0.081480 -0.004790
v 0.047923 0.061012 -0.004393
v 0.016945 0.062487 -0.007993
v 0.001014 0.067244 -0.008229
v 0.001608 0.089536 -0.005189
v 0.028587 0.081480 -0.004790
v 0.000686 0.055003 -0.009741
v -0.009329 0.052622 -0.009849
v -0.015162 0.063398 -0.008403
v 0.001014 0.067244 -0.008229
v -0.000813 0.003026 -0.007769
v -0.001930 -0.089608 -0.000686
v -0.035015 -0.016671 -0.005650
v -0.035136 -0.016599 0.003949
v -0.001950 -0.089596 0.000914
v -0.001014 0.003147 0.008229
v -0.001014 0.003147 0.008229
v -0.001950 -0.089596 0.000914
v 0.032044 -0.017699 0.005601
v -0.016744 0.007784 -0.008005
v -0.035015 -0.016671 -0.005650
v -0.047802 0.009307 -0.005206
v -0.047923 0.009379 0.004393
v -0.035136 -0.016599 0.003949
v -0.016945 0.007904 0.007993
v 0.017378 0.044719 0.009748
v 0.019759 0.034704 0.009853
v 0.032007 0.034345 0.008409
v 0.028162 0.050521 0.008239
v 0.019759 0.034704 0.009853
v 0.019759 0.034704 0.009853
v 0.016812 0.024839 0.009890
v 0.027248 0.018413 0.008469
v 0.032007 0.034345 0.008409
v 0.016812 0.024839 0.009890
v 0.016812 0.024839 0.009890
v 0.009329 0.017769 0.009849
v 0.015162 0.006993 0.008403
v 0.027248 0.018413 0.008469
v 0.009329 0.017769 0.009849
v 0.009329 0.017769 0.009849
v -0.000686 0.015388 0.009741
v -0.001014 0.003147 0.008229
v 0.015162 0.006993 0.008403
v -0.000686 0.015388 0.009741
v -0.000686 0.015388 0.009741
v -0.010550 0.018333 0.009595
v -0.016945 0.007904 0.007993
v -0.001014 0.003147 0.008229
v -0.010550 0.018333 0.009595
v -0.017619 0.025816 0.009450
v -0.028363 0.019990 0.007759
v -0.016945 0.007904 0.007993
v -0.017619 0.025816 0.009450
v -0.017619 0.025816 0.009450
v -0.020000 0.035832 0.009345
v -0.032208 0.036166 0.007589
v -0.028363 0.019990 0.007759
v -0.020000 0.035832 0.009345
v -0.020000 0.035832 0.009345
v -0.017053 0.045696 0.009308
v -0.027449 0.052099 0.007529
v -0.032208 0.036166 0.007589
v -0.017053 0.045696 0.009308
v -0.009570 0.052766 0.009349
v -0.015363 0.063518 0.007595
v -0.027449 0.052099 0.007529
v -0.009570 0.052766 0.009349
v -0.009570 0.052766 0.009349
v 0.000445 0.055148 0.009457
v 0.000813 0.067365 0.007769
v -0.015363 0.063518 0.007595
v 0.000445 0.055148 0.009457
v 0.010309 0.052203 0.009603
v 0.016744 0.062607 0.008005
v 0.000813 0.067365 0.007769
v -0.009329 0.052622 -0.009849
v -0.016812 0.045552 -0.009890
v -0.027248 0.051978 -0.008469
v -0.015162 0.063398 -0.008403
v -0.016812 0.045552 -0.009890
v -0.019758 0.035687 -0.009853
v -0.032007 0.036046 -0.008409
v -0.027248 0.051978 -0.008469
v -0.019758 0.035687 -0.009853
v -0.017378 0.025672 -0.009748
v -0.028162 0.019870 -0.008239
v -0.032007 0.036046 -0.008409
v -0.017378 0.025672 -0.009748
v -0.010309 0.018189 -0.009603
v -0.016744 0.007784 -0.008005
v -0.028162 0.019870 -0.008239
v -0.010309 0.018189 -0.009603
v -0.000445 0.015243 -0.009456
v -0.000813 0.003026 -0.007769
v -0.016744 0.007784 -0.008005
v -0.000445 0.015243 -0.009456
v 0.009570 0.017625 -0.009349
v 0.015363 0.006873 -0.007595
v -0.000813 0.003026 -0.007769
v 0.009570 0.017625 -0.009349
v 0.017054 0.024695 -0.009308
v 0.027449 0.018292 -0.007529
v 0.015363 0.006873 -0.007595
v 0.017054 0.024695 -0.009308
v 0.020000 0.034559 -0.009345
v 0.032208 0.034225 -0.007589
v 0.027449 0.018292 -0.007529
v 0.020000 0.034559 -0.009345
v 0.017619 0.044575 -0.009450
v 0.028363 0.050401 -0.007759
v 0.032208 0.034225 -0.007589
v 0.017619 0.044575 -0.009450
v 0.010550 0.052058 -0.009595
v 0.016945 0.062487 -0.007993
v 0.028363 0.050401 -0.007759
v 0.010550 0.052058 -0.009595
v 0.000686 0.055003 -0.009741
v 0.001014 0.067244 -0.008229
v 0.016945 0.062487 -0.007993
v 0.038482 0.006779 0.006298
v 0.034595 0.006815 0.006649
v 0.027221 -0.010644 0.006402
v 0.032044 -0.017699 0.005601
v 0.046255 0.006708 0.005596
v -0.035015 -0.016671 -0.005650
v -0.001930 -0.089608 -0.000686
v -0.001950 -0.089596 0.000914
v -0.001950 -0.089596 0.000914
v -0.001930 -0.089608 -0.000686
v 0.032165 -0.017771 -0.003998
v -0.036912 0.057927 0.005766
v -0.027449 0.052099 0.007529
v -0.015363 0.063518 0.007595
v -0.020635 0.073306 0.005855
v -0.020635 0.073306 0.005855
v -0.015363 0.063518 0.007595
v 0.000813 0.067365 0.007769
v 0.001150 0.078486 0.006090
v 0.001150 0.078486 0.006090
v 0.000813 0.067365 0.007769
v 0.016744 0.062607 0.008005
v 0.022605 0.072080 0.006407
v 0.022605 0.072080 0.006407
v 0.016744 0.062607 0.008005
v 0.028162 0.050521 0.008239
v 0.037982 0.055803 0.006723
v 0.037982 0.055803 0.006723
v 0.028162 0.050521 0.008239
v 0.032007 0.034345 0.008409
v 0.043160 0.034017 0.006952
v 0.043160 0.034017 0.006952
v 0.032007 0.034345 0.008409
v 0.027248 0.018413 0.008469
v 0.036752 0.012560 0.007033
v 0.036752 0.012560 0.007033
v 0.027248 0.018413 0.008469
v 0.015162 0.006993 0.008403
v 0.030708 0.006850 0.007000
v 0.036752 0.012560 0.007033
v 0.034595 0.006815 0.006649
v 0.038482 0.006779 0.006298
v 0.036752 0.012560 0.007033
v 0.030708 0.006850 0.007000
v 0.034595 0.006815 0.006649
v 0.034595 0.006815 0.006649
v 0.030708 0.006850 0.007000
v 0.015162 0.006993 0.008403
v 0.027221 -0.010644 0.006402
v -0.041644 0.060841 0.004885
v -0.036912 0.057927 0.005766
v -0.020635 0.073306 0.005855
v -0.023271 0.078200 0.004985
v -0.023271 0.078200 0.004985
v -0.020635 0.073306 0.005855
v -0.020635 0.073306 0.005855
v 0.001150 0.078486 0.006090
v 0.001319 0.084047 0.005250
v 0.001319 0.084047 0.005250
v 0.001150 0.078486 0.006090
v 0.022605 0.072080 0.006407
v 0.025536 0.076816 0.005608
v 0.025536 0.076816 0.005608
v 0.022605 0.072080 0.006407
v 0.022605 0.072080 0.006407
v 0.037982 0.055803 0.006723
v 0.042892 0.058444 0.005964
v 0.042892 0.058444 0.005964
v 0.037982 0.055803 0.006723
v 0.037982 0.055803 0.006723
v 0.043160 0.034017 0.006952
v 0.048737 0.033853 0.006223
v 0.048737 0.033853 0.006223
v 0.043160 0.034017 0.006952
v 0.036752 0.012560 0.007033
v 0.041503 0.009634 0.006314
v -0.038143 0.014684 0.006076
v -0.028363 0.019990 0.007759
v -0.032208 0.036166 0.007589
v -0.043321 0.036470 0.005847
v -0.043033 0.012032 0.005234
v -0.038143 0.014684 0.006076
v -0.043321 0.036470 0.005847
v -0.048877 0.036622 0.004976
v -0.043321 0.036470 0.005847
v -0.032208 0.036166 0.007589
v -0.027449 0.052099 0.007529
v -0.036912 0.057927 0.005766
v 0.000077 0.042931 0.011144
v -0.003778 0.042015 0.011102
v -0.006658 0.039293 0.011087
v -0.007792 0.035497 0.011101
v -0.006875 0.031642 0.011142
v -0.004155 0.028762 0.011197
v -0.000358 0.027628 0.011254
v 0.003496 0.028545 0.011295
v 0.006376 0.031266 0.011311
v 0.007510 0.035063 0.011297
v 0.006594 0.038918 0.011256
v 0.003873 0.041798 0.011200
v 0.004155 0.041629 -0.011197
v 0.006876 0.038749 -0.011142
v 0.007792 0.034894 -0.011101
v 0.006658 0.031098 -0.011087
v 0.003778 0.028376 -0.011102
v -0.000077 0.027460 -0.011144
v -0.003873 0.028593 -0.011200
v -0.006594 0.031473 -0.011256
v -0.007510 0.035328 -0.011297
v -0.006376 0.039125 -0.011311
v -0.003496 0.041846 -0.011295
v 0.000358 0.042763 -0.011254
v 0.017378 0.044719 0.009748
v 0.006594 0.038918 0.011256
v 0.007510 0.035063 0.011297
v 0.019759 0.034704 0.009853
v 0.019759 0.034704 0.009853
v 0.007510 0.035063 0.011297
v 0.006376 0.031266 0.011311
v 0.016812 0.024839 0.009890
v 0.016812 0.024839 0.009890
v 0.006376 0.031266 0.011311
v 0.003496 0.028545 0.011295
v 0.009329 0.017769 0.009849
v 0.009329 0.017769 0.009849
v 0.003496 0.028545 0.011295
v -0.000358 0.027628 0.011254
v -0.000686 0.015388 0.009741
v -0.000686 0.015388 0.009741
v -0.000358 0.027628 0.011254
v -0.004155 0.028762 0.011197
v -0.010550 0.018333 0.009595
v -0.010550 0.018333 0.009595
v -0.004155 0.028762 0.011197
v -0.006875 0.031642 0.011142
v -0.017619 0.025816 0.009450
v -0.017619 0.025816 0.009450
v -0.006875 0.031642 0.011142
v -0.007792 0.035497 0.011101
v -0.020000 0.035832 0.009345
v -0.020000 0.035832 0.009345
v -0.007792 0.035497 0.011101
v -0.006658 0.039293 0.011087
v -0.017053 0.045696 0.009308
v -0.017053 0.045696 0.009308
v -0.006658 0.039293 0.011087
v -0.003778 0.042015 0.011102
v -0.009570 0.052766 0.009349
v -0.009570 0.052766 0.009349
v -0.003778 0.042015 0.011102
v 0.000077 0.042931 0.011144
v 0.000445 0.055148 0.009457
v 0.000445 0.055148 0.009457
v 0.000077 0.042931 0.011144
v 0.003873 0.041798 0.011200
v 0.010309 0.052203 0.009603
v 0.010309 0.052203 0.009603
v 0.003873 0.041798 0.011200
v 0.006594 0.038918 0.011256
v 0.017378 0.044719 0.009748
v -0.010309 0.018189 -0.009603
v -0.003873 0.028593 -0.011200
v -0.000077 0.027460 -0.011144
v -0.000445 0.015243 -0.009456
v -0.017378 0.025672 -0.009748
v -0.006594 0.031473 -0.011256
v -0.003873 0.028593 -0.011200
v -0.010309 0.018189 -0.009603
v -0.019758 0.035687 -0.009853
v -0.007510 0.035328 -0.011297
v -0.006594 0.031473 -0.011256
v -0.017378 0.025672 -0.009748
v -0.016812 0.045552 -0.009890
v -0.006376 0.039125 -0.011311
v -0.007510 0.035328 -0.011297
v -0.019758 0.035687 -0.009853
v -0.009329 0.052622 -0.009849
v -0.003496 0.041846 -0.011295
v -0.006376 0.039125 -0.011311
v -0.016812 0.045552 -0.009890
v 0.000686 0.055003 -0.009741
v 0.000358 0.042763 -0.011254
v -0.003496 0.041846 -0.011295
v -0.009329 0.052622 -0.009849
v 0.010550 0.052058 -0.009595
v 0.004155 0.041629 -0.011197
v 0.000358 0.042763 -0.011254
v 0.000686 0.055003 -0.009741
v 0.017619 0.044575 -0.009450
v 0.006876 0.038749 -0.011142
v 0.004155 0.041629 -0.011197
v 0.010550 0.052058 -0.009595
v 0.020000 0.034559 -0.009345
v 0.007792 0.034894 -0.011101
v 0.006876 0.038749 -0.011142
v 0.017619 0.044575 -0.009450
v 0.017054 0.024695 -0.009308
v 0.006658 0.031098 -0.011087
v 0.007792 0.034894 -0.011101
v 0.020000 0.034559 -0.009345
v 0.009570 0.017625 -0.009349
v 0.003778 0.028376 -0.011102
v 0.006658 0.031098 -0.011087
v 0.017054 0.024695 -0.009308
v -0.000445 0.015243 -0.009456
v -0.000077 0.027460 -0.011144
v 0.003778 0.028376 -0.011102
v 0.009570 0.017625 -0.009349
vn -0.2312 0.9728 -0.0102
vn -0.6867 0.7268 -0.0141
vn -0.9581 0.2861 -0.0142
vn -0.9728 -0.2313 -0.0105
vn -0.8972 -0.4415 -0.0079
vn -0.9104 -0.4136 -0.0083
vn 0.9036 -0.4282 0.0146
vn 0.8641 -0.5031 0.0146
vn 0.9581 -0.2861 0.0142
vn 0.9728 0.2313 0.0105
vn 0.7269 0.6868 0.0040
vn 0.2862 0.9582 -0.0036
vn 0.0945 0.1085 0.9896
vn -0.0216 0.1357 -0.9905
vn 0.1307 0.0415 0.9906
vn 0.1285 -0.0346 0.9911
vn 0.0886 -0.0995 0.9911
vn 0.0139 -0.1034 0.9945
vn -0.0520 -0.1250 0.9908
vn -0.1193 -0.0936 0.9884
vn -0.1555 -0.0266 0.9875
vn -0.1534 0.0495 0.9869
vn -0.1134 0.1144 0.9869
vn -0.0464 0.1505 0.9875
vn 0.0297 0.1484 0.9885
vn 0.0851 0.0996 0.9914
vn -0.0886 0.0995 -0.9911
vn -0.1285 0.0346 -0.9911
vn -0.1307 -0.0415 -0.9906
vn -0.0945 -0.1085 -0.9896
vn -0.0114 -0.0874 -0.9961
vn 0.0618 -0.0823 -0.9947
vn 0.1140 -0.0820 -0.9901
vn 0.1534 -0.0495 -0.9869
vn 0.1555 0.0266 -0.9875
vn 0.1193 0.0936 -0.9884
vn 0.0545 0.1335 -0.9895
vn -0.0186 0.1231 -0.9922
vn -0.0180 -0.0760 -0.9969
vn -0.0798 -0.0776 0.9938
vn 0.0295 -0.0789 0.9964
vn -0.0911 -0.0278 -0.9955
vn -0.1187 -0.0753 0.9901
vn 0.1181 0.0385 0.9923
vn 0.1161 -0.0309 0.9928
vn 0.0797 -0.0901 0.9927
vn 0.0186 -0.1231 0.9922
vn -0.0508 -0.1211 0.9913
vn -0.1100 -0.0847 0.9903
vn -0.1430 -0.0236 0.9894
vn -0.1410 0.0458 0.9889
vn -0.1046 0.1050 0.9890
vn -0.0435 0.1380 0.9895
vn 0.0260 0.1360 0.9904
vn -0.0797 0.0901 -0.9927
vn -0.1161 0.0309 -0.9928
vn -0.1181 -0.0385 -0.9923
vn -0.0851 -0.0996 -0.9914
vn -0.0260 -0.1360 -0.9904
vn 0.0435 -0.1380 -0.9895
vn 0.1046 -0.1050 -0.9890
vn 0.1410 -0.0458 -0.9889
vn 0.1430 0.0236 -0.9894
vn 0.1100 0.0847 -0.9903
vn 0.0508 0.1211 -0.9913
vn 0.0893 -0.0518 0.9947
vn -0.0126 0.0075 0.9999
vn 0.0126 -0.0075 -0.9999
vn 0.0259 0.1360 0.9904
usemtl mat8
s off
f 1//1 2//1 3//1 4//1
f 5//2 6//2 7//2 8//2
f 9//3 10//3 11//3 12//3
f 13//4 14//4 15//4 16//4
f 17//5 18//5 19//5 20//5
f 21//6 22//6 23//6
f 24//7 25//7 26//7
f 27//8 28//8 29//8 30//8
f 31//9 32//9 33//9 34//9
f 35//10 36//10 37//10 38//10
f 39//11 40//11 41//11 42//11
f 43//12 44//12 45//12 46//12
f 47//13 48//13 49//13 50//13
f 51//14 52//14 53//14 54//14
f 55//15 56//15 57//15 58//15 59//15
f 60//16 61//16 62//16 63//16 64//16
f 65//17 66//17 67//17 68//17
f 69//18 70//18 71//18 72//18
f 73//19 74//19 75//19
f 76//20 77//20 78//20 79//20 80//20
f 81//21 82//21 83//21 84//21
f 85//22 86//22 87//22 88//22 89//22 90//22
f 91//23 92//23 93//23 94//23
f 95//24 96//24 97//24 98//24 99//24
f 100//25 101//25 102//25 103//25 104//25
f 105//26 106//26 107//26 108//26 109//26
f 110//27 111//27 112//27 113//27
f 114//28 115//28 116//28 117//28
f 118//29 119//29 120//29 121//29
f 122//30 123//30 124//30
f 125//31 126//31 127//31
f 128//32 129//32 130//32 131//32
f 132//33 133//33 134//33 135//33
f 136//34 137//34 138//34 139//34
f 140//35 141//35 142//35 143//35
f 144//36 145//36 146//36 147//36
f 148//37 149//37 150//37 151//37
f 152//38 153//38 154//38 155//38
f 156//39 157//39 158//39
f 159//40 160//40 161//40
f 162//41 163//41 164//41
f 165//42 166//42 167//42
f 168//43 169//43 170//43
f 171//44 172//44 173//44 174//44
f 175//45 176//45 177//45 178//45 179//45
f 180//46 181//46 182//46 183//46 184//46
f 185//47 186//47 187//47 188//47 189//47
f 190//48 191//48 192//48 193//48 194//48
f 195//49 196//49 197//49 198//49
f 199//50 200//50 201//50 202//50 203//50
f 204//51 205//51 206//51 207//51 208//51
f 209//52 210//52 211//52 212//52
f 213//53 214//53 215//53 216//53 217//53
f 218//54 219//54 220//54 221//54
f 222//55 223//55 224//55 225//55
f 226//56 227//56 228//56 229//56
f 230//57 231//57 232//57 233//57
f 234//58 235//58 236//58 237//58
f 238//59 239//59 240//59 241//59
f 242//60 243//60 244//60 245//60
f 246//61 247//61 248//61 249//61
f 250//62 251//62 252//62 253//62
f 254//63 255//63 256//63 257//63
f 258//64 259//64 260//64 261//64
f 262//65 263//65 264//65 265//65
f 266//66 267//66 268//66 269//66 270//66
f 271//6 272//6 273//6
f 274//7 275//7 276//7
f 277//23 278//23 279//23 280//23
f 281//24 282//24 283//24 284//24
f 285//25 286//25 287//25 288//25
f 289//13 290//13 291//13 292//13
f 293//15 294//15 295//15 296//15
f 297//16 298//16 299//16 300//16
f 301//17 302//17 303//17 304//17
f 305//17 306//17 307//17
f 308//17 309//17 310//17
f 311//66 312//66 313//66 314//66
f 315//23 316//23 317//23 318//23
f 319//24 320//24 321//24 322//24 323//24
f 324//25 325//25 326//25 327//25
f 328//13 329//13 330//13 331//13 332//13
f 333//15 334//15 335//15 336//15 337//15
f 338//16 339//16 340//16 341//16
f 342//21 343//21 344//21 345//21
f 346//21 347//21 348//21 349//21
f 350//22 351//22 352//22 353//22
usemtl mat23
f 354//67 355//67 356//67 357//67 358//67 359//67 360//67 361//67 362//67 363//67 364//67 365//67
f 366//68 367//68 368//68 369//68 370//68 371//68 372//68 373//68 374//68 375//68 376//68 377//68
f 378//44 379//44 380//44 381//44
f 382//45 383//45 384//45 385//45
f 386//46 387//46 388//46 389//46
f 390//47 391//47 392//47 393//47
f 394//48 395//48 396//48 397//48
f 398//49 399//49 400//49 401//49
f 402//50 403//50 404//50 405//50
f 406//51 407//51 408//51 409//51
f 410//52 411//52 412//52 413//52
f 414//53 415//53 416//53 417//53
f 418//69 419//69 420//69 421//69
f 422//26 423//26 424//26 425//26
f 426//59 427//59 428//59 429//59
f 430//58 431//58 432//58 433//58
f 434//57 435//57 436//57 437//57
f 438//56 439//56 440//56 441//56
f 442//55 443//55 444//55 445//55
f 446//38 447//38 448//38 449//38
f 450//65 451//65 452//65 453//65
f 454//64 455//64 456//64 457//64
f 458//63 459//63 460//63 461//63
f 462//62 463//62 464//62 465//62
f 466//61 467//61 468//61 469//61
f 470//60 471//60 472//60 473//60
